<?xml version="1.0" encoding="UTF-8"?>
<svg width="521px" height="123px" viewBox="0 0 521 123" version="1.1" xmlns="http://www.w3.org/2000/svg" xmlns:xlink="http://www.w3.org/1999/xlink">
    <title>Untitled 2</title>
    <g id="Page-1" stroke="none" stroke-width="1" fill="none" fill-rule="evenodd">
        <g id="bscscan" fill-rule="nonzero">
            <g id="bscscan-logo-circle" transform="translate(0.622000, 0.666000)">
                <path d="M25.6,58.1 C25.6002511,56.7317312 26.1456173,55.4199418 27.1154724,54.4547783 C28.0853275,53.4896148 29.3997461,52.9506161 30.768,52.957 L39.336,52.985 C42.1808187,52.985 44.487,55.2911813 44.487,58.136 L44.487,90.536 C45.452,90.25 46.687,89.945 48.046,89.625 C49.9844486,89.1689125 51.3545754,87.4393811 51.355,85.448 L51.355,45.261 C51.3549999,42.4160194 53.6610195,40.1095522 56.506,40.109 L65.1,40.109 C67.9449805,40.1095522 70.2510001,42.4160194 70.251,45.261 L70.251,82.561 C70.251,82.561 72.401,81.691 74.494,80.807 C76.0839895,80.1345267 77.1176547,78.5763502 77.119,76.85 L77.119,32.383 C77.1189999,29.5385717 79.4245718,27.2325522 82.269,27.232 L90.854,27.232 C93.6968659,27.2347595 96.0000013,29.5401327 96,32.383 L96,69 C103.443,63.606 110.986,57.118 116.972,49.317 C118.735988,47.0170276 119.230119,43.9861564 118.288,41.245 C110.73074,19.5029325 91.5144467,3.91459229 68.6812096,1.00375648 C45.8479725,-1.90707934 23.3353696,8.36156118 10.5650072,27.5122146 C-2.20535518,46.6628681 -3.03123557,71.3930154 8.433,91.353 C9.92813063,93.9305114 12.7810867,95.4084643 15.749,95.143 C17.373,95 19.395,94.798 21.799,94.516 C23.9649515,94.2695526 25.6017151,92.4379259 25.604,90.258 L25.604,58.1" id="Path_1" fill="#FFFFFF"></path>
                <path d="M25.417,110.061 C43.868691,123.484357 68.2925597,125.416796 88.6255907,115.062123 C108.958622,104.70745 121.760248,83.8177866 121.756001,61 C121.756001,59.6 121.691,58.222 121.598,56.848 C99.435,89.903 58.513,105.356 25.417,110.061" id="Path_2" fill="#F0B90B"></path>
            </g>
            <g id="words" transform="translate(140.622000, 14.666000)">
                <path d="M15.442,87.74 L6.952,87.74 L5.452,92 L0.982,92 L8.782,71.06 L13.612,71.06 L21.382,92 L16.912,92 L15.442,87.74 Z M14.302,84.53 L11.182,75.59 L8.062,84.53 L14.302,84.53 Z M43.132,75.17 C44.4624336,75.151098 45.7716741,75.5043851 46.912,76.19 C48.0567771,76.8975422 48.9693216,77.9248066 49.537,79.145 C50.1955075,80.5677709 50.5188012,82.1226599 50.482,83.69 C50.5188012,85.2573401 50.1955075,86.8122291 49.537,88.235 C48.9693216,89.4551934 48.0567771,90.4824578 46.912,91.19 C45.7716741,91.8756149 44.4624336,92.228902 43.132,92.21 C41.8620855,92.2458184 40.6114503,91.8934777 39.547,91.2 C38.575568,90.5536309 37.8348715,89.6150651 37.432,88.52 L37.432,99.92 L33.202,99.92 L33.202,75.38 L37.432,75.38 L37.432,78.83 C37.8315668,77.7357357 38.5732464,76.7994309 39.547,76.16 C40.6155017,75.4775522 41.8647073,75.1325833 43.132,75.17 Z M41.812,78.86 C40.6199591,78.8225619 39.4685708,79.295486 38.647,80.16 C37.7807346,81.1252634 37.3329583,82.394862 37.402,83.69 C37.3363769,84.9756143 37.7842266,86.2346296 38.647,87.19 C39.4685708,88.054514 40.6199591,88.5274381 41.812,88.49 C43.0058847,88.5412243 44.1641902,88.0768094 44.992,87.215 C45.8365778,86.241562 46.267217,84.9765596 46.192,83.69 C46.2653281,82.3991515 45.8351658,81.1301726 44.992,80.15 C44.1687421,79.2799041 43.0087686,78.8093488 41.812,78.86 Z M59.212,78.56 C59.8041743,77.5282822 60.6511851,76.6657773 61.672,76.055 C62.7060956,75.4411346 63.8895256,75.1245152 65.092,75.14 L65.092,79.67 L63.862,79.67 C60.762,79.67 59.212,81.11 59.212,83.99 L59.212,92 L54.982,92 L54.982,75.38 L59.212,75.38 L59.212,78.56 Z M76.612,75.17 C78.1287723,75.1455752 79.6281214,75.4959385 80.977,76.19 C82.2564635,76.8597277 83.3141984,77.8861994 84.022,79.145 C84.7872253,80.5352565 85.1702334,82.1035193 85.132,83.69 C85.1715588,85.2718562 84.7883833,86.8356263 84.022,88.22 C83.3084342,89.4743495 82.2521873,90.4993773 80.977,91.175 C79.6310477,91.8785291 78.1305352,92.2343207 76.612,92.21 C75.0934648,92.2343207 73.5929523,91.8785291 72.247,91.175 C70.9718127,90.4993773 69.9155658,89.4743495 69.202,88.22 C68.4356167,86.8356263 68.0524412,85.2718562 68.092,83.69 C68.0537666,82.1035193 68.4367747,80.5352565 69.202,79.145 C69.9098016,77.8861994 70.9675365,76.8597277 72.247,76.19 C73.5958786,75.4959385 75.0952277,75.1455752 76.612,75.17 L76.612,75.17 Z M76.612,78.83 C75.4822579,78.8091197 74.394991,79.2603355 73.612,80.075 C72.7332328,81.0659611 72.2899685,82.3687256 72.382,83.69 C72.2913361,85.0095845 72.734511,86.3102848 73.612,87.3 C74.394991,88.1146645 75.4822579,88.5658803 76.612,88.545 C77.7417421,88.5658803 78.829009,88.1146645 79.612,87.3 C80.489489,86.3102848 80.9326639,85.0095845 80.842,83.69 C80.9340315,82.3687256 80.4907672,81.0659611 79.612,80.075 C78.829009,79.2603355 77.7417421,78.8091197 76.612,78.83 Z M96.142,75.17 C97.4092927,75.1325833 98.6584983,75.4775522 99.727,76.16 C100.703794,76.8035985 101.45403,77.7374586 101.872,78.83 L101.872,69.8 L106.072,69.8 L106.072,92 L101.872,92 L101.872,88.52 C101.449588,89.6140971 100.698463,90.5503836 99.722,91.2 C98.6589634,91.8924974 97.4102227,92.2447958 96.142,92.21 C94.8115664,92.228902 93.5023259,91.8756149 92.362,91.19 C91.2172229,90.4824578 90.3046784,89.4551934 89.737,88.235 C89.0784925,86.8122291 88.7551988,85.2573401 88.792,83.69 C88.7551988,82.1226599 89.0784925,80.5677709 89.737,79.145 C90.3046784,77.9248066 91.2172229,76.8975422 92.362,76.19 C93.5023259,75.5043851 94.8115664,75.151098 96.142,75.17 Z M97.462,78.86 C96.2652314,78.8093488 95.1052579,79.2799041 94.282,80.15 C93.4388342,81.1301726 93.0086719,82.3991515 93.082,83.69 C93.006783,84.9765596 93.4374222,86.241562 94.282,87.215 C95.1098098,88.0768094 96.2681153,88.5412243 97.462,88.49 C98.6530846,88.5247085 99.8024865,88.0500346 100.622,87.185 C101.484773,86.2296296 101.932623,84.9706143 101.867,83.685 C101.933357,82.393261 101.485759,81.1277634 100.622,80.165 C99.8024865,79.2999654 98.6530846,78.8252915 97.462,78.86 L97.462,78.86 Z M127.312,75.38 L127.312,92 L123.082,92 L123.082,88.64 C122.665865,89.7306482 121.901298,90.6534015 120.907,91.265 C119.854338,91.9073595 118.639917,92.2352531 117.407,92.21 C115.673158,92.2876541 113.993451,91.5960102 112.817,90.32 C111.600798,88.8390299 110.989909,86.952775 111.107,85.04 L111.107,75.38 L115.307,75.38 L115.307,84.56 C115.237337,85.6782351 115.602829,86.7800854 116.327,87.635 C117.04491,88.3831383 118.051296,88.7842342 119.087,88.735 C120.180935,88.786417 121.243117,88.3593543 121.997,87.565 C122.772524,86.6238248 123.158897,85.4217746 123.077,84.205 L123.077,75.385 L127.312,75.38 Z M140.122,75.17 C142.056119,75.1019301 143.952298,75.7180555 145.477,76.91 C146.926974,78.1039302 147.883473,79.7924972 148.162,81.65 L143.692,81.65 C143.547207,80.8292806 143.110307,80.0886824 142.462,79.565 C141.765036,79.0362807 140.906151,78.7658909 140.032,78.8 C138.958785,78.7792303 137.931552,79.2351677 137.227,80.045 C136.409818,81.0767969 136.008483,82.3771233 136.102,83.69 C136.007074,85.0022295 136.406604,86.3024853 137.222,87.335 C137.927682,88.1461893 138.957049,88.6022615 140.032,88.58 C140.906151,88.6141091 141.765036,88.3437193 142.462,87.815 C143.110307,87.2913176 143.547207,86.5507194 143.692,85.73 L148.162,85.73 C147.883473,87.5875028 146.926974,89.2760698 145.477,90.47 C143.952298,91.6619445 142.056119,92.2780699 140.122,92.21 C138.61741,92.2380249 137.130539,91.8817953 135.802,91.175 C134.554747,90.4978546 133.532789,89.4706832 132.862,88.22 C132.134048,86.8232758 131.772755,85.2645513 131.812,83.69 C131.774045,82.1107891 132.135193,80.5475332 132.862,79.145 C133.527046,77.890073 134.550474,76.8614233 135.802,76.19 C137.133535,75.4927236 138.619205,75.1419405 140.122,75.17 Z M161.542,88.37 L161.542,92 L159.322,92 C157.777804,92.1047088 156.251005,91.6225617 155.047,90.65 C154.057,89.75 153.562,88.25 153.562,86.15 L153.562,78.95 L151.252,78.95 L151.252,75.38 L153.562,75.38 L153.562,71.27 L157.792,71.27 L157.792,75.38 L161.512,75.38 L161.512,78.95 L157.792,78.95 L157.792,86.21 C157.729298,86.8109516 157.901278,87.4128839 158.272,87.89 C158.72869,88.2552369 159.310056,88.4274934 159.892,88.37 L161.542,88.37 Z M181.792,75.17 C183.308772,75.1455752 184.808121,75.4959385 186.157,76.19 C187.436464,76.8597277 188.494198,77.8861994 189.202,79.145 C189.967225,80.5352565 190.350233,82.1035193 190.312,83.69 C190.351559,85.2718562 189.968383,86.8356263 189.202,88.22 C188.488434,89.4743495 187.432187,90.4993773 186.157,91.175 C184.811048,91.8785291 183.310535,92.2343207 181.792,92.21 C180.271779,92.2351574 178.769445,91.8793416 177.422,91.175 C176.148656,90.4986126 175.094216,89.4736553 174.382,88.22 C173.615617,86.8356263 173.232441,85.2718562 173.272,83.69 C173.233767,82.1035193 173.616775,80.5352565 174.382,79.145 C175.08846,77.8869058 176.144382,76.8605071 177.422,76.19 C178.772376,75.4951359 180.273542,75.1447493 181.792,75.17 L181.792,75.17 Z M181.792,78.83 C180.662258,78.8091197 179.574991,79.2603355 178.792,80.075 C177.913233,81.0659611 177.469968,82.3687256 177.562,83.69 C177.471336,85.0095845 177.914511,86.3102848 178.792,87.3 C179.574991,88.1146645 180.662258,88.5658803 181.792,88.545 C182.921742,88.5658803 184.009009,88.1146645 184.792,87.3 C185.669489,86.3102848 186.112664,85.0095845 186.022,83.69 C186.114032,82.3687256 185.670767,81.0659611 184.792,80.075 C184.009009,79.2603355 182.921742,78.8091197 181.792,78.83 L181.792,78.83 Z M203.032,72.5 C202.124976,72.3409033 201.191429,72.5340509 200.422,73.04 C199.853639,73.6675923 199.580704,74.5082332 199.672,75.35 L199.672,75.38 L203.032,75.38 L203.032,78.95 L199.672,78.95 L199.672,92 L195.442,92 L195.442,78.95 L193.312,78.95 L193.312,75.38 L195.442,75.38 L195.442,74.99 C195.33348,73.2937556 195.949489,71.6310757 197.137,70.415 C198.541398,69.2502681 200.342465,68.6750019 202.162,68.81 C202.542,68.81 202.832,68.82 203.032,68.84 L203.032,72.5 Z M220.072,74.87 L220.072,79.31 L227.242,79.31 L227.242,83.18 L220.072,83.18 L220.072,87.89 L228.142,87.89 L228.142,92 L214.942,92 L214.942,70.79 L228.142,70.79 L228.142,74.87 L220.072,74.87 Z M242.032,87.59 L242.032,92 L239.722,92 C238.068991,92.1018825 236.437486,91.5830105 235.147,90.545 C234.057,89.575 233.512,87.97 233.512,85.73 L233.512,79.58 L231.262,79.58 L231.262,75.26 L233.512,75.26 L233.512,71.15 L238.642,71.15 L238.642,75.26 L242.002,75.26 L242.002,79.58 L238.642,79.58 L238.642,85.82 C238.587362,86.3148167 238.731214,86.8111033 239.042,87.2 C239.431204,87.4981484 239.919031,87.6375277 240.407,87.59 L242.032,87.59 Z M257.032,75.08 C258.767744,75.0016475 260.447028,75.7063962 261.607,77 C262.809937,78.4876868 263.41596,80.3699221 263.307,82.28 L263.307,92 L258.177,92 L258.177,82.88 C258.2341,81.9232709 257.916711,80.9818614 257.292,80.255 C256.679704,79.6155788 255.821455,79.2711859 254.937,79.31 C254.007412,79.2651235 253.104201,79.6264082 252.462,80.3 C251.807044,81.0880957 251.479525,82.0974983 251.547,83.12 L251.547,92 L246.417,92 L246.417,69.8 L251.547,69.8 L251.547,78.32 C252.012707,77.3358032 252.75898,76.5112493 253.692,75.95 C254.702475,75.3543427 255.859337,75.0530044 257.032,75.08 L257.032,75.08 Z M284.092,83.18 C284.08735,83.6438044 284.037108,84.106028 283.942,84.56 L272.332,84.56 C272.291873,85.5546406 272.635569,86.5266562 273.292,87.275 C273.893648,87.832975 274.691977,88.1296511 275.512,88.1 C276.187926,88.1259986 276.853155,87.9253739 277.402,87.53 C277.890216,87.1674603 278.239589,86.6486938 278.392,86.06 L283.822,86.06 C283.611753,87.2180478 283.116914,88.3056634 282.382,89.225 C281.627234,90.1665393 280.661093,90.9168409 279.562,91.415 C278.3663,91.9586536 277.065383,92.2318121 275.752,92.215 C274.232963,92.2439637 272.731316,91.8879031 271.387,91.18 C270.122578,90.4945895 269.085293,89.4555678 268.402,88.19 C267.657069,86.7877073 267.285166,85.2174477 267.322,83.63 C267.281727,82.0392017 267.648305,80.4644648 268.387,79.055 C269.068673,77.7932903 270.106872,76.760308 271.372,76.085 C272.722069,75.378061 274.228296,75.0221374 275.752,75.05 C277.274428,75.0173848 278.780614,75.3681405 280.132,76.07 C281.363508,76.7220928 282.379527,77.71727 283.057,78.935 C283.764787,80.2361094 284.121495,81.6991292 284.092,83.18 L284.092,83.18 Z M278.902,82.4 C278.990937,81.4842927 278.666402,80.5766949 278.017,79.925 C277.395244,79.370532 276.584709,79.0753041 275.752,79.1 C274.893289,79.0705089 274.055907,79.3711075 273.412,79.94 C272.751681,80.5897164 272.374364,81.4737173 272.362,82.4 L278.902,82.4 Z M293.392,78.41 C294.009142,77.412402 294.858247,76.5787355 295.867,75.98 C296.858962,75.384932 297.995257,75.0736184 299.152,75.0799038 L299.152,80.57 L297.682,80.57 C296.559715,80.5010168 295.44634,80.8070632 294.517,81.44 C293.697588,82.1865528 293.28027,83.2771428 293.392,84.38 L293.392,92 L288.262,92 L288.262,75.26 L293.392,75.26 L293.392,78.41 Z M308.902,75.05 C310.732413,74.956345 312.535986,75.5202939 313.987,76.64 C315.261471,77.7074158 316.108267,79.1986293 316.372,80.84 L311.572,80.84 C311.459504,80.2078467 311.122065,79.637751 310.622,79.235 C310.09329,78.8322491 309.441185,78.6254841 308.777,78.65 C308.306695,78.6168847 307.839649,78.7495682 307.457,79.025 C307.149857,79.2909317 306.983601,79.6844028 307.007,80.09 C307.00903,80.6145469 307.338597,81.0819338 307.832,81.26 C308.669451,81.6089602 309.540755,81.8703514 310.432,82.04 C311.500366,82.2777967 312.552496,82.5834157 313.582,82.955 C314.409411,83.2704079 315.142573,83.7918821 315.712,84.47 C316.345359,85.2690587 316.665373,86.2717716 316.612,87.29 C316.627069,88.2009375 316.354089,89.0933697 315.832,89.84 C315.260799,90.6202884 314.480876,91.2234287 313.582,91.58 C312.476646,92.0235445 311.292698,92.23788 310.102,92.21 C308.177821,92.3066547 306.273717,91.7806592 304.672,90.71 C303.29286,89.6783651 302.393713,88.1292319 302.182,86.42 L307.132,86.42 C307.177578,87.0783702 307.512683,87.6826579 308.047,88.07 C308.654469,88.4725749 309.373954,88.67214 310.102,88.64 C310.577075,88.6740321 311.04776,88.5296174 311.422,88.235 C311.722477,87.9642734 311.887314,87.5741593 311.872,87.17 C311.892713,86.6209457 311.560708,86.1199199 311.047,85.925 C310.178595,85.5760761 309.279762,85.3082675 308.362,85.125 C307.322676,84.9208665 306.299883,84.6400998 305.302,84.285 C304.499752,83.9834357 303.787412,83.4827327 303.232,82.83 C302.615775,82.0523386 302.306222,81.0756461 302.362,80.085 C302.323182,78.6678792 302.957393,77.316008 304.072,76.44 C305.472423,75.4312536 307.179605,74.9399529 308.902,75.05 Z M328.522,75.05 C330.486076,74.9845611 332.409841,75.6169591 333.952,76.835 C335.441869,78.0766376 336.424011,79.8220747 336.712,81.74 L331.282,81.74 C331.15859,81.0814684 330.808287,80.4870148 330.292,80.06 C329.750882,79.646415 329.082587,79.4342577 328.402,79.46 C327.535254,79.4441107 326.712043,79.8390294 326.182,80.525 C325.54434,81.4276357 325.237103,82.5223888 325.312,83.625 C325.235935,84.7292893 325.543227,85.8260036 326.182,86.73 C326.711004,87.4178497 327.534379,87.8147015 328.402,87.8 C329.082587,87.8257423 329.750882,87.613585 330.292,87.2 C330.808287,86.7729852 331.15859,86.1785316 331.282,85.52 L336.712,85.52 C336.42285,87.4361262 335.440811,89.1796014 333.952,90.42 C332.410527,91.6398312 330.486695,92.2740224 328.522,92.21 C327.002963,92.2389637 325.501316,91.8829031 324.157,91.175 C322.89328,90.4909305 321.856069,89.4537201 321.172,88.19 C320.427069,86.7877073 320.055166,85.2174477 320.092,83.63 C320.051727,82.0392017 320.418305,80.4644648 321.157,79.055 C321.838673,77.7932903 322.876872,76.760308 324.142,76.085 C325.492069,75.378061 326.998296,75.0221374 328.522,75.05 Z M347.242,75.05 C348.402631,75.0178775 349.548058,75.3198539 350.542,75.92 C351.447788,76.483467 352.159613,77.3104411 352.582,78.29 L352.582,75.26 L357.682,75.26 L357.682,92 L352.582,92 L352.582,88.97 C352.159613,89.9495589 351.447788,90.776533 350.542,91.34 C349.548058,91.9401461 348.402631,92.2421225 347.242,92.21 C345.932976,92.229942 344.646172,91.8704707 343.537,91.175 C342.411568,90.4445244 341.516832,89.4093356 340.957,88.19 C340.299527,86.7615761 339.976339,85.2020667 340.012,83.63 C339.973194,82.0528176 340.296475,80.4877304 340.957,79.055 C341.520076,77.8417434 342.414413,76.8122165 343.537,76.085 C344.646172,75.3895293 345.932976,75.030058 347.242,75.05 Z M348.892,79.55 C347.892396,79.5087409 346.923962,79.9026802 346.237,80.63 C345.526923,81.4625622 345.166751,82.5377035 345.232,83.63 C345.166751,84.7222965 345.526923,85.7974378 346.237,86.63 C346.923962,87.3573198 347.892396,87.7512591 348.892,87.71 C349.89599,87.7419685 350.864519,87.3370468 351.547,86.6 C352.265409,85.7824441 352.636709,84.7169756 352.582,83.63 C352.641976,82.5377471 352.270254,81.4656806 351.547,80.645 C350.860072,79.9160133 349.893108,79.5172089 348.892,79.55 L348.892,79.55 Z M373.342,75.08 C375.077744,75.0016475 376.757028,75.7063962 377.917,77 C379.119937,78.4876868 379.72596,80.3699221 379.617,82.28 L379.617,92 L374.487,92 L374.487,82.88 C374.5441,81.9232709 374.226711,80.9818614 373.602,80.255 C372.989704,79.6155788 372.131455,79.2711859 371.247,79.31 C370.317412,79.2651235 369.414201,79.6264082 368.772,80.3 C368.117044,81.0880957 367.789525,82.0974983 367.857,83.12 L367.857,92 L362.722,92 L362.722,75.26 L367.852,75.26 L367.852,78.32 C368.317707,77.3358032 369.06398,76.5112493 369.997,75.95 C371.008927,75.3534386 372.167648,75.0520672 373.342,75.08 L373.342,75.08 Z" id="Path_124" fill="#C5CCD8" opacity="0.8"></path>
                <path d="M31.976,25.792 C34.8776305,26.3150873 37.4958261,27.8604613 39.356,30.148 C41.1988711,32.412781 42.1808341,35.2566481 42.128,38.176 C42.3100859,42.0235605 40.7339327,45.7454011 37.844,48.292 C34.988,50.764 30.848,52 25.424,52 L3.608,52 L3.608,1.168 L24.992,1.168 C30.1253333,1.168 34.0733333,2.296 36.836,4.552 C39.5986667,6.808 40.9786667,9.97466667 40.976,14.052 C41.0950847,16.8563882 40.2148204,19.6119981 38.492,21.828 C36.8314109,23.8489203 34.5341371,25.2464638 31.976,25.792 Z M13.76,22.48 L22.9,22.48 C24.9733814,22.6269704 27.0308673,22.0267521 28.7,20.788 C30.0659319,19.5542403 30.7948627,17.7650464 30.68,15.928 C30.7920826,14.0869799 30.0797327,12.2914477 28.736,11.028 C27.44,9.876 25.448,9.3 22.76,9.3 L13.76,9.3 L13.76,22.48 Z M23.408,43.72 C25.6138292,43.8651946 27.8018554,43.2418615 29.6,41.956 C31.0876821,40.6738373 31.8874084,38.767823 31.76,36.808 C31.8748368,34.8211562 31.0623229,32.8932822 29.56,31.588 C27.7660074,30.2596258 25.5596889,29.6092082 23.332,29.752 L13.76,29.752 L13.76,43.72 L23.408,43.72 Z M63.008,11.608 C67.856,11.608 71.744,12.832 74.672,15.28 C77.6250158,17.7708436 79.5701554,21.2516196 80.144,25.072 L70.644,25.072 C70.3348709,23.2838953 69.4195862,21.6567225 68.052,20.464 C66.5703246,19.2645235 64.7003809,18.6497474 62.796,18.736 C61.3472969,18.6457881 59.9145562,19.0802962 58.76,19.96 C57.7961702,20.783777 57.2650786,22.0052877 57.32,23.272 C57.2819058,24.28842 57.7053291,25.2675865 58.472,25.936 C59.3168104,26.6507049 60.2960072,27.1892632 61.352,27.52 C62.504,27.904 64.16,28.36 66.32,28.888 C68.829802,29.4098523 71.2967693,30.1198575 73.7,31.012 C75.602912,31.759276 77.2877503,32.9723596 78.6,34.54 C80.0494719,36.3923846 80.7784846,38.7073197 80.652,41.056 C80.730906,44.2993325 79.2417548,47.3818756 76.652,49.336 C73.988,51.4453333 70.4,52.5 65.888,52.5 C60.704,52.5 56.552,51.3373333 53.432,49.012 C50.260902,46.5979809 48.2076703,42.998328 47.744,39.04 L57.464,39.04 C57.634704,40.8841779 58.5759683,42.5706097 60.056,43.684 C61.7592719,44.8776813 63.810345,45.4727457 65.888,45.376 C67.3202084,45.4749227 68.7362881,45.0243519 69.848,44.116 C70.7603199,43.2760272 71.260039,42.0793314 71.216,40.84 C71.2528483,39.774721 70.8182012,38.7473734 70.028,38.032 C69.1730148,37.2762773 68.1666045,36.7117057 67.076,36.376 C65.9,35.992 64.2333333,35.536 62.076,35.008 C59.6210281,34.4857696 57.2036542,33.8002456 54.84,32.956 C52.9965392,32.2632536 51.3607602,31.110773 50.088,29.608 C48.6799075,27.8068201 47.9760406,25.5544461 48.108,23.272 C48.0232712,19.9961278 49.4914759,16.8728559 52.068,14.848 C54.7053333,12.688 58.352,11.608 63.008,11.608 L63.008,11.608 Z M106.136,11.608 C110.777897,11.4445461 115.328755,12.9232564 118.988,15.784 C122.467642,18.6496806 124.763169,22.7021191 125.432,27.16 L114.7,27.16 C114.351538,25.1917387 113.303071,23.4158791 111.748,22.16 C110.075279,20.8910886 108.01396,20.2421549 105.916,20.324 C103.340284,20.2741527 100.874925,21.3684025 99.184,23.312 C97.384,25.304 96.484,28.22 96.484,32.06 C96.484,35.9 97.384,38.816 99.184,40.808 C100.874925,42.7515975 103.340284,43.8458473 105.916,43.796 C108.01396,43.8778451 110.075279,43.2289114 111.748,41.96 C113.303071,40.7041209 114.351538,38.9282613 114.7,36.96 L125.428,36.96 C124.759169,41.4178809 122.463642,45.4703194 118.984,48.336 C115.324188,51.1915548 110.775061,52.6659137 106.136,52.5 C102.52533,52.5685248 98.9568501,51.7149531 95.768,50.02 C92.7746273,48.3948039 90.3219417,45.9296046 88.712,42.928 C86.9649573,39.5758466 86.0978549,35.8349188 86.192,32.056 C86.100899,28.2658929 86.9676552,24.5140767 88.712,21.148 C90.3081387,18.1361969 92.7643587,15.6674452 95.768,14.056 C98.9636727,12.3825042 102.529288,11.5406228 106.136,11.608 L106.136,11.608 Z M167.552,38.108 C167.571343,40.6288441 166.898956,43.1067146 165.608,45.272 C164.226086,47.5354408 162.22817,49.3585393 159.848,50.528 C156.955555,51.9224601 153.769513,52.5989108 150.56,52.5 C147.25207,52.55672 143.967887,51.9317449 140.912,50.664 C138.212005,49.5413303 135.863406,47.7135674 134.112,45.372 C132.389523,43.0178029 131.377597,40.2193904 131.196,37.308 L141.996,37.308 C142.184265,39.2651276 143.065147,41.0907224 144.48,42.456 C146.013453,43.8688514 148.049302,44.6079812 150.132,44.508 C151.914552,44.6273744 153.668985,44.0165717 154.992,42.816 C156.131495,41.6587642 156.743573,40.0829897 156.684,38.46 C156.737345,37.0265602 156.248937,35.6255984 155.316,34.536 C154.355946,33.4692036 153.177161,32.6219516 151.86,32.052 C150.468,31.428 148.548,30.708 146.1,29.892 C143.434562,29.0404892 140.83552,27.9936527 138.324,26.76 C136.271021,25.6959173 134.505061,24.1522457 133.176,22.26 C131.67068,19.9829191 130.926972,17.2868028 131.052,14.56 C130.882783,10.5602927 132.635394,6.72060317 135.768,4.228 C138.912,1.708 143.076,0.448 148.26,0.448 C153.636,0.448 157.92,1.744 161.112,4.336 C164.28123,6.88816518 166.248511,10.6416444 166.544,14.7 L155.6,14.7 C155.367395,12.9820861 154.55611,11.3947892 153.3,10.2 C151.892431,8.96580462 150.057165,8.33250894 148.188,8.436 C146.546654,8.35880416 144.933615,8.88368176 143.652,9.912 C142.451494,11.0027859 141.81385,12.5814326 141.92,14.2 C141.873797,15.5608086 142.35043,16.8876534 143.252,17.908 C144.201847,18.936476 145.353923,19.7576365 146.636,20.32 C148.457304,21.1153296 150.319983,21.8123321 152.216,22.408 C154.928354,23.3334255 157.584806,24.4152385 160.172,25.648 C162.26348,26.7003795 164.05808,28.2598247 165.392,30.184 C166.926419,32.5299165 167.682239,35.2998563 167.552,38.1 L167.552,38.108 Z M192.968,11.608 C197.609897,11.4445461 202.160755,12.9232564 205.82,15.784 C209.299642,18.6496806 211.595169,22.7021191 212.264,27.16 L201.536,27.16 C201.187538,25.1917387 200.139071,23.4158791 198.584,22.16 C196.911279,20.8910886 194.84996,20.2421549 192.752,20.324 C190.176284,20.2741527 187.710925,21.3684025 186.02,23.312 C184.22,25.304 183.32,28.22 183.32,32.06 C183.32,35.9 184.22,38.816 186.02,40.808 C187.710925,42.7515975 190.176284,43.8458473 192.752,43.796 C194.84996,43.8778451 196.911279,43.2289114 198.584,41.96 C200.139071,40.7041209 201.187538,38.9282613 201.536,36.96 L212.264,36.96 C211.593296,41.4150002 209.297937,45.4642922 205.82,48.328 C202.160211,51.1873131 197.609405,52.6645901 192.968,52.5 C189.35733,52.5685248 185.78885,51.7149531 182.6,50.02 C179.606627,48.3948039 177.153942,45.9296046 175.544,42.928 C173.796957,39.5758466 172.929855,35.8349188 173.024,32.056 C172.932899,28.2658929 173.799655,24.5140767 175.544,21.148 C177.140139,18.1361969 179.596359,15.6674452 182.6,14.056 C185.795673,12.3825042 189.361288,11.5406228 192.968,11.608 Z M235.088,11.608 C238.140369,11.5217636 241.148938,12.3491202 243.728,13.984 C246.081409,15.5095694 247.875463,17.7584537 248.84,20.392 L248.84,12.112 L258.92,12.112 L258.92,52 L248.84,52 L248.84,43.648 C247.870042,46.2880092 246.078107,48.546857 243.728,50.092 C241.156831,51.7478164 238.144964,52.5872351 235.088,52.5 C231.894962,52.5453436 228.752791,51.6974561 226.016,50.052 C223.26852,48.3539167 221.078408,45.8884772 219.716,42.96 C218.135541,39.5453632 217.359634,35.8136201 217.448,32.052 C217.359634,28.2903799 218.135541,24.5586368 219.716,21.144 C221.078408,18.2155228 223.26852,15.7500833 226.016,14.052 C228.753203,12.407945 231.895347,11.5614502 235.088,11.608 Z M238.256,20.464 C235.383162,20.3436258 232.599193,21.4744309 230.624,23.564 C228.704,25.6306667 227.744,28.464 227.744,32.064 C227.744,35.664 228.704,38.484 230.624,40.524 C232.610758,42.5923205 235.390681,43.7069122 238.256,43.584 C241.120117,43.6719039 243.885415,42.53231 245.856,40.452 C247.923665,38.1621168 248.998291,35.1453956 248.844,32.064 C249.006476,28.959747 247.932027,25.917633 245.856,23.604 C243.886833,21.5207433 241.121346,20.3781606 238.256,20.464 L238.256,20.464 Z M291.896,11.536 C296.057222,11.3496303 300.088517,13.0095755 302.912,16.072 C305.645333,19.096 307.012,23.344 307.012,28.816 L307.012,52 L296.932,52 L296.932,29.968 C296.932,26.8 296.116,24.34 294.484,22.588 C292.734665,20.7860127 290.291963,19.82789 287.784,19.96 C285.181206,19.845853 282.657766,20.8710004 280.872,22.768 C279.144,24.64 278.28,27.328 278.28,30.832 L278.28,52 L268.136,52 L268.136,12.112 L278.288,12.112 L278.288,20.1 C279.286002,17.4820236 281.121137,15.267206 283.508,13.8 C286.032527,12.2612655 288.944106,11.4757776 291.9,11.536 L291.896,11.536 Z" id="Path_123" fill="#FFFFFF"></path>
            </g>
        </g>
    </g>
</svg>