<?xml version="1.0" encoding="UTF-8"?>
<svg width="25px" height="24px" viewBox="0 0 25 24" version="1.1" xmlns="http://www.w3.org/2000/svg" xmlns:xlink="http://www.w3.org/1999/xlink">
    <title>Combined Shape</title>
    <g id="Prototyping" stroke="none" stroke-width="1" fill="none" fill-rule="evenodd">
        <g id="LP-v1" transform="translate(-670.000000, -736.000000)" fill="#AA380C">
            <g id="How-It-Works" transform="translate(310.000000, 735.000000)">
                <g id="Group-4" transform="translate(360.000000, 0.000000)">
                    <path d="M10.4891469,1.30626884 C12.7633385,1.54661378 15.0578561,2.43533766 16.8712871,3.82780514 C17.168831,4.05629911 17.4539224,4.30166063 17.7198971,4.56605363 L17.967,4.824 L17.7385523,4.60627215 C16.5039172,3.48566928 14.8138157,2.84722351 13.1868239,2.52517091 L12.8624207,2.46492985 C11.2002174,2.17633555 8.73397619,2.21122615 7.97625203,4.06268257 C10.7379848,2.33038403 14.4501707,3.30348793 17.1305994,4.70717226 C19.2439947,5.81397648 21.1138177,7.40913637 22.5876515,9.27603709 C23.3112913,10.1926058 23.9519853,11.1899471 24.4155202,12.2629317 C24.8252676,13.2115727 25.2035918,14.38906 24.8753183,15.4162753 C25.0853726,14.4014042 24.5360608,13.2908234 24.0535587,12.4309026 C23.5030013,11.4496256 22.8258451,10.529844 22.0785954,9.68841129 C20.6598513,8.09071493 18.8318127,6.64126135 16.7330249,6.07280949 C18.6558993,7.15379805 20.3547347,8.6066336 21.722692,10.3322246 C23.0889509,12.05573 24.1871781,14.0802867 24.5946042,16.2543825 C25.0096737,18.4688364 24.6626595,20.943307 23.0861766,22.6535101 C22.3206391,23.4840078 21.3065467,24.0680731 20.1925229,24.2823769 C19.1123003,24.4901986 17.993011,24.3391939 16.9814665,23.9206758 C17.2256051,24.0012793 17.4768776,24.0605764 17.7318303,24.0943397 C20.0850046,24.4062132 21.9840992,22.4159271 22.7273857,20.3763771 C23.529895,18.1745491 23.0197632,15.7253305 21.8169051,13.768075 C22.3799185,15.8066668 22.3316796,18.0328448 21.2077476,19.879792 C20.0093058,21.8491099 17.8531069,22.968371 15.5942023,23.2050521 C13.3492824,23.4402677 11.0538022,22.9267164 8.99555324,22.0482512 C6.82333138,21.121142 4.81264184,19.7426533 3.21770128,18.0015053 C1.82717128,16.483355 0.494769282,14.4195017 0.624934326,12.27682 L0.648,12.014 L0.651883308,12.2513978 C0.733719664,14.0217932 2.117463,15.5676714 3.41237156,16.6823713 L3.58826876,16.8316838 C5.38392159,18.3351361 7.53468507,19.5415955 9.81097156,20.1372722 C11.9333126,20.6927599 14.5688429,20.7407274 16.3262783,19.2269037 C14.8959841,19.5091287 13.408392,19.4417712 11.9867604,19.1424674 C9.67610651,18.6559154 7.49380658,17.5748141 5.6075643,16.1734408 C3.72573826,14.7753367 2.04915395,12.9941688 1.00731861,10.8830902 C0.0562425875,8.95604689 -0.394383325,6.60935815 0.433038096,4.55802763 C0.8725668,3.46835869 1.67434008,2.5426023 2.71487319,1.98339448 C3.69759891,1.455188 4.83087297,1.28118594 5.93504517,1.40158387 C5.79802862,1.39408718 5.66061575,1.39301623 5.52348596,1.39932923 C3.04648721,1.51352689 1.82924805,4.14430065 2.0708388,6.34364848 C2.31463766,8.56351356 3.80104074,10.5392008 5.55434299,11.847401 C3.92877187,9.50820895 2.69584941,6.13345939 4.4351103,3.51362065 C5.75216771,1.52970395 8.2640434,1.07105321 10.4891469,1.30626884 Z M12.3972136,9.24963663 C10.9654532,9.24963663 10.2410549,10.3933278 10.7792249,11.8041424 C11.3173948,13.214957 12.9143389,14.3586483 14.3460994,14.3586483 C15.7778599,14.3586483 16.5022581,13.214957 15.9640881,11.8041424 C15.4259182,10.3933278 13.8289741,9.24963663 12.3972136,9.24963663 Z" id="Combined-Shape"></path>
                </g>
            </g>
        </g>
    </g>
</svg>
