<?xml version="1.0" encoding="UTF-8"?>
<svg width="31px" height="30px" viewBox="0 0 31 30" version="1.1" xmlns="http://www.w3.org/2000/svg" xmlns:xlink="http://www.w3.org/1999/xlink">
    <title>Group 4 Copy</title>
    <defs>
        <polygon id="path-1" points="0 0 31 0 31 31 0 31"></polygon>
    </defs>
    <g id="Prototyping" stroke="none" stroke-width="1" fill="none" fill-rule="evenodd">
        <g id="LP-v1" transform="translate(-99.000000, -31.000000)">
            <g id="Header" transform="translate(99.000000, 20.000000)">
                <g id="Group-5-Copy" transform="translate(0.000000, 10.000000)">
                    <g id="Group-4-Copy" transform="translate(0.000000, 0.000000)">
                        <mask id="mask-2" fill="white">
                            <use xlink:href="#path-1"></use>
                        </mask>
                        <g id="Clip-2"></g>
                        <path d="M13.0065421,1.4810929 C15.8265397,1.78863994 18.6717416,2.92585713 20.920396,4.70766811 C21.4123352,5.09751138 21.8768236,5.52572591 22.2942734,5.9988752 C20.6477829,4.27945358 18.2208031,3.37066074 15.9494016,2.9637235 C13.8882696,2.59443625 10.8301305,2.6390825 9.89055252,5.00821888 C13.3151011,2.79155775 17.9182117,4.03674819 21.2419433,5.83291232 C23.8625535,7.24918661 26.1811339,9.29036418 28.0086878,11.6792632 C28.9060013,12.8521108 29.7004617,14.1283156 30.275245,15.5013141 C30.7833318,16.7152017 31.2524538,18.2219225 30.8453946,19.5363543 C31.105862,18.2377182 30.4247153,16.8166114 29.8264128,15.7162508 C29.1437216,14.460602 28.3040479,13.2836432 27.3774582,12.20694 C25.6182156,10.1625168 23.3514478,8.30778602 20.7489509,7.58039111 C23.1333152,8.96363151 25.239871,10.8226899 26.9361381,13.030768 C28.6302991,15.2361774 29.9921009,17.826814 30.4973092,20.608802 C31.0119954,23.4424324 30.5816978,26.6087821 28.6268589,28.7971697 C27.6775924,29.8598803 26.420118,30.6072542 25.0387284,30.8814788 C23.6992524,31.1474089 22.3113336,30.9541823 21.0570185,30.4186436 C21.3597503,30.5217844 21.6713282,30.5976614 21.9874696,30.6408651 C24.9054057,31.0399406 27.260283,28.4931568 28.1819583,25.8833346 C29.1770698,23.0658604 28.5445063,19.9318234 27.0529623,17.4273058 C27.751099,20.0359018 27.6912828,22.8845346 26.297607,25.2479009 C24.8115391,27.7678536 22.1378526,29.2000678 19.3368108,29.5029266 C16.5531101,29.8039102 13.7067148,29.1467664 11.154486,28.0226762 C8.46093092,26.8363409 5.96767589,25.0724173 3.98994959,22.8444323 C2.19384834,20.8208536 0.475957506,18.0395869 0.804665868,15.1758797 C0.751378887,17.6751321 2.71260658,19.8467864 4.44945326,21.3475207 C6.67606277,23.2713486 9.34300948,24.8151424 12.1656047,25.5773743 C14.7973076,26.2881802 18.0653652,26.3495598 20.2445851,24.4124606 C18.4710202,24.7735976 16.6264061,24.6874065 14.8635829,24.3044152 C11.9983721,23.68182 9.29232015,22.2984354 6.95337973,20.5052284 C4.61991544,18.7162048 2.54095089,16.4370101 1.24907508,13.7356594 C0.0697408085,11.2698015 -0.489035323,8.26696246 0.536967239,5.64206582 C1.08198283,4.24771795 2.0761817,3.0631137 3.36644276,2.34754753 C4.58502265,1.67165089 5.99028249,1.44899665 7.35945601,1.60305867 C7.18955549,1.59346586 7.01916353,1.59209545 6.84912259,1.60017361 C3.77764414,1.74630173 2.26826758,5.11265793 2.56784011,7.92695854 C2.8701507,10.7675132 4.71329052,13.2956162 6.88738531,14.9695981 C4.87167712,11.9763519 3.34285327,7.65799914 5.49953677,4.30563546 C7.13268797,1.76700201 10.2474138,1.18010937 13.0065421,1.4810929 Z M15.3725449,11.645481 C13.5971619,11.645481 12.6989081,13.1089561 13.3662389,14.9142442 C14.0335696,16.7195323 16.0137803,18.1830074 17.7891633,18.1830074 C19.5645462,18.1830074 20.4628,16.7195323 19.7954693,14.9142442 C19.1281386,13.1089561 17.1479279,11.645481 15.3725449,11.645481 Z" id="Combined-Shape" fill="#FFFFFF" mask="url(#mask-2)"></path>
                    </g>
                </g>
            </g>
        </g>
    </g>
</svg>
