<?xml version="1.0" encoding="UTF-8"?>
<svg width="768px" height="125px" viewBox="0 0 768 125" version="1.1" xmlns="http://www.w3.org/2000/svg" xmlns:xlink="http://www.w3.org/1999/xlink">
    <title>Untitled</title>
    <defs>
        <rect id="path-1" x="0" y="0" width="125" height="125"></rect>
    </defs>
    <g id="Page-1" stroke="none" stroke-width="1" fill="none" fill-rule="evenodd">
        <g id="polygonscan">
            <g id="Mask_Group_3-Clipped">
                <mask id="mask-2" fill="white">
                    <use xlink:href="#path-1"></use>
                </mask>
                <g id="Rectangle_32"></g>
                <g id="Mask_Group_3" mask="url(#mask-2)" fill="#8247E5" fill-rule="nonzero">
                    <g transform="translate(2.000000, 10.000000)" id="Path_151">
                        <path d="M91.487,31.789 C89.1240126,30.4683155 86.2449874,30.4683155 83.882,31.789 L66.434,41.909 L54.579,48.509 L37.132,58.629 C34.7687096,59.9485209 31.8902904,59.9485209 29.527,58.629 L15.658,50.709 C13.3630237,49.3929495 11.9221313,46.973767 11.858,44.329 L11.858,28.709 C11.8261592,26.0375012 13.2938086,23.573395 15.658,22.329 L29.303,14.629 C31.6662904,13.3094791 34.5447096,13.3094791 36.908,14.629 L50.553,22.329 C52.8479763,23.6450505 54.2888687,26.064233 54.353,28.709 L54.353,38.829 L66.208,32.009 L66.208,21.889 C66.2398408,19.2175012 64.7721914,16.753395 62.408,15.509 L37.132,0.99 C34.7687096,-0.329520938 31.8902904,-0.329520938 29.527,0.99 L3.8,15.51 C1.43613159,16.7542307 -0.0314633272,19.2178591 -0.000507815215,21.889 L-0.000507815215,51.149 C-0.0318408211,53.8204988 1.43580861,56.284605 3.8,57.529 L29.524,72.049 C31.8872904,73.3685209 34.7657096,73.3685209 37.129,72.049 L54.576,62.149 L66.431,55.329 L83.879,45.429 C86.2419874,44.1083155 89.1210126,44.1083155 91.484,45.429 L105.129,53.129 C107.423834,54.4451956 108.864673,56.8642894 108.929,59.509 L108.929,75.129 C108.960841,77.8004988 107.493191,80.264605 105.129,81.509 L91.484,89.429 C89.1207096,90.7485209 86.2422904,90.7485209 83.879,89.429 L70.234,81.729 C67.9391664,80.4128044 66.4983269,77.9937106 66.434,75.349 L66.434,65.228 L54.579,72.048 L54.579,82.168 C54.5471592,84.8394988 56.0148086,87.303605 58.379,88.548 L84.103,103.068 C86.4662904,104.387521 89.3447096,104.387521 91.708,103.068 L117.432,88.548 C119.726834,87.2318044 121.167673,84.8127106 121.232508,82.168 L121.232508,52.909 C121.263841,50.2375012 119.796191,47.773395 117.432,46.529 L91.487,31.789 Z"></path>
                    </g>
                </g>
            </g>
            <path d="M182.114,38.651 C186.169756,38.5889595 190.156688,39.7028275 193.593,41.858 C197.070892,44.110367 199.841647,47.2995265 201.586,51.058 C203.632902,55.497708 204.634567,60.3476408 204.514,65.235 C204.624296,70.1053262 203.62293,74.9367136 201.586,79.362 C199.851621,83.1396631 197.079676,86.3468383 193.593,88.61 C190.156688,90.7651725 186.169756,91.8790405 182.114,91.817 C178.517703,91.9151417 174.968927,90.9779651 171.89,89.117 C169.094388,87.3843736 166.915612,84.8151192 165.663,81.774 L165.663,115.884 L149.77,115.884 L149.77,39.304 L165.663,39.304 L165.663,48.691 C166.916409,45.6508463 169.095497,43.0826851 171.891,41.351 C174.969639,39.4902205 178.51804,38.553051 182.114,38.651 Z M177.002,52.594 C173.900726,52.4926335 170.905256,53.7279691 168.777,55.986 C166.639,58.2473333 165.57,61.33 165.57,65.234 C165.40087,68.6011795 166.551356,71.9016073 168.777,74.434 C170.890969,76.7180136 173.891385,77.9732638 177.002,77.875 C180.098749,78.0028153 183.098918,76.7823211 185.227,74.529 C187.303667,72.2983333 188.342,69.2003333 188.342,65.235 C188.342,61.2696667 187.304,58.1716667 185.228,55.941 C183.099865,53.6870414 180.099248,52.4661486 177.002,52.594 Z M237.044,38.651 C241.837677,38.5694345 246.577533,39.6709357 250.844,41.858 C254.859305,43.954041 258.183578,47.165456 260.417,51.106 C262.813532,55.4215917 264.016487,60.2979631 263.902,65.233 C264.018371,70.1682548 262.817137,75.0453344 260.422,79.362 C258.188578,83.302544 254.864305,86.513959 250.849,88.61 C246.582528,90.7970643 241.842677,91.8985655 237.049,91.817 C232.240016,91.8952272 227.485091,90.7941337 223.2,88.61 C219.164851,86.524774 215.822657,83.3118212 213.58,79.362 C211.181728,75.0468934 209.977039,70.1704934 210.09,65.235 C209.975513,60.2999631 211.178468,55.4235917 213.575,51.108 C215.817657,47.1581788 219.159851,43.945226 223.195,41.86 C227.479915,39.6751737 232.234849,38.5733914 237.044,38.651 L237.044,38.651 Z M237.044,52.407 C234.132418,52.3533483 231.338648,53.555675 229.376,55.707 C227.3,57.907 226.262,61.0826667 226.262,65.234 C226.262,69.3853333 227.3,72.5453333 229.376,74.714 C231.352625,76.8401138 234.141545,78.023259 237.044,77.967 C239.933965,78.0292416 242.710773,76.8439699 244.665,74.714 C246.709667,72.5453333 247.732,69.3853333 247.732,65.234 C247.732,61.0826667 246.709667,57.907 244.665,55.707 C242.724187,53.5530437 239.942746,52.3493704 237.044,52.409 L237.044,52.407 Z M288.07,8.998 L288.07,91.166 L272.176,91.166 L272.176,9 L288.069,9 L288.07,8.998 Z M311.027,39.298 L323.481,71.09 L335.099,39.303 L352.665,39.303 L320.322,115.889 L302.848,115.889 L315.022,89.214 L293.275,39.304 L311.027,39.298 Z M377.667,38.651 C381.263297,38.5528583 384.812073,39.4900349 387.891,41.351 C390.697381,43.0966783 392.902691,45.6589552 394.211,48.694 L394.211,39.307 L410.011,39.307 L410.011,90.887 C410.081158,95.3949303 409.127553,99.8600207 407.222,103.946 C405.364708,107.8172 402.385107,111.039671 398.671,113.194 C394.829,115.486667 390.058,116.633 384.358,116.633 C376.550667,116.633 370.308,114.789667 365.63,111.103 C360.948458,107.411592 357.923344,102.01307 357.219,96.093 L372.926,96.093 C373.364776,98.1172179 374.583457,99.8870355 376.318,101.019 C378.39975,102.281398 380.809926,102.896125 383.242,102.785 C386.160219,102.918331 389.014075,101.900251 391.189,99.95 C393.203,98.06 394.21,95.0393333 394.21,90.888 L394.21,81.779 C392.901691,84.8140448 390.696381,87.3763217 387.89,89.122 C384.811073,90.9829651 381.262297,91.9201417 377.666,91.822 C373.610244,91.8840405 369.623312,90.7701725 366.187,88.615 C362.700324,86.3518383 359.928379,83.1446631 358.194,79.367 C356.15707,74.9417136 355.155704,70.1103262 355.266,65.24 C355.145893,60.3536484 356.147547,55.5047937 358.194,51.066 C359.938353,47.3075265 362.709108,44.118367 366.187,41.866 C369.622737,39.70783 373.610104,38.5911589 377.667,38.651 Z M382.779,52.593 C379.682251,52.4651847 376.682082,53.6856789 374.554,55.939 C372.478,58.1696667 371.44,61.2676667 371.44,65.233 C371.44,69.1983333 372.478,72.2963333 374.554,74.527 C376.682082,76.7803211 379.682251,78.0008153 382.779,77.873 C385.889303,77.9717754 388.88967,76.7172754 391.004,74.434 C393.229644,71.9016073 394.38013,68.6011795 394.211,65.234 C394.211,61.3306667 393.142,58.248 391.004,55.986 C388.875744,53.7279691 385.880274,52.4926335 382.779,52.594 L382.779,52.593 Z M445.237,38.651 C450.030677,38.5694345 454.770533,39.6709357 459.037,41.858 C463.052305,43.954041 466.376578,47.165456 468.61,51.106 C471.006486,55.4216095 472.209439,60.2979685 472.095,65.233 C472.210407,70.1685234 471.008136,75.0456076 468.612,79.362 C466.378578,83.302544 463.054305,86.513959 459.039,88.61 C454.772533,90.7970643 450.032677,91.8985655 445.239,91.817 C440.430012,91.8952679 435.675077,90.7941722 431.39,88.61 C427.354851,86.524774 424.012657,83.3118212 421.77,79.362 C419.373468,75.0464083 418.170513,70.1700369 418.285,65.235 C418.170513,60.2999631 419.373468,55.4235917 421.77,51.108 C424.012657,47.1581788 427.354851,43.945226 431.39,41.86 C435.674315,39.6754922 440.428523,38.573719 445.237,38.651 Z M445.237,52.407 C442.325444,52.3534788 439.531725,53.5557834 437.569,55.707 C435.493,57.907 434.455,61.0826667 434.455,65.234 C434.455,69.3853333 435.493,72.5453333 437.569,74.714 C439.545625,76.8401138 442.334545,78.023259 445.237,77.967 C448.126965,78.0292416 450.903773,76.8439699 452.858,74.714 C454.902667,72.5453333 455.925,69.3853333 455.925,65.234 C455.925,61.0826667 454.902667,57.907 452.858,55.707 C450.917187,53.5530437 448.135746,52.3493704 445.237,52.409 L445.237,52.407 Z M513.272,38.746 C519.220667,38.746 523.945333,40.7286667 527.446,44.694 C530.946667,48.6593333 532.697,54.1116667 532.697,61.051 L532.697,91.166 L516.804,91.166 L516.804,62.911 C516.804,59.4443333 515.89,56.7333333 514.062,54.778 C512.164285,52.7956608 509.503573,51.7284601 506.762,51.85 C503.881982,51.7108097 501.083631,52.8300769 499.094,54.917 C497.206667,56.9623333 496.263,59.8736667 496.263,63.651 L496.263,91.166 L480.37,91.166 L480.37,39.304 L496.263,39.304 L496.263,48.784 C497.705575,45.734709 500.017468,43.1799721 502.908,41.441 C506.043331,39.5927475 509.633484,38.6591829 513.272,38.746 Z M562.072,38.653 C568.64,38.653 573.891333,40.295 577.826,43.579 C581.774564,46.8858528 584.398061,51.5058216 585.215,56.591 L570.339,56.591 C569.994313,54.6348778 568.954482,52.8691541 567.411,51.619 C565.772971,50.371334 563.752672,49.7308893 561.695,49.807 C560.238089,49.7045952 558.79133,50.115731 557.606,50.969 C556.654163,51.7928956 556.139089,53.0122261 556.212,54.269 C556.218637,55.8940601 557.239562,57.3419671 558.768,57.894 C561.357652,58.974285 564.051943,59.7842478 566.808,60.311 C570.117901,61.0478071 573.377502,61.9947246 576.567,63.146 C579.131036,64.1227181 581.402917,65.7385079 583.167,67.84 C585.025667,70.0086667 585.955,72.921 585.955,76.577 C586.001461,79.3991688 585.15558,82.1639436 583.538,84.477 C581.76824,86.8944791 579.351885,88.7631596 576.567,89.868 C573.142627,91.2421204 569.474781,91.9062178 565.786,91.82 C558.786,91.82 553.178333,90.271 548.963,87.173 C544.747667,84.075 542.176,79.6433333 541.248,73.878 L556.584,73.878 C556.72559,75.918403 557.765102,77.7908418 559.422,78.99 C561.304074,80.2373897 563.533286,80.855701 565.789,80.756 C567.260697,80.8612015 568.71872,80.4137036 569.878,79.501 C570.808859,78.6620176 571.319471,77.4532528 571.272,76.201 C571.334614,74.4994687 570.304427,72.9477493 568.712,72.345 C566.021205,71.2692891 563.236677,70.4447769 560.394,69.882 C557.174201,69.2503255 554.005551,68.3812866 550.914,67.282 C548.42854,66.3476624 546.221654,64.7963381 544.501,62.774 C542.701,60.698 541.801,57.8646667 541.801,54.274 C541.680901,49.8830288 543.64668,45.6944348 547.101,42.981 C550.634333,40.0943333 555.623,38.651 562.067,38.651 L562.072,38.653 Z M618.21,38.653 C624.902,38.653 630.509667,40.4963333 635.033,44.183 C639.556333,47.8696667 642.406667,52.9363333 643.584,59.383 L626.756,59.383 C626.372728,57.3445252 625.287574,55.5046804 623.689,54.183 C622.012708,52.9016806 619.942409,52.2443475 617.834,52.324 C615.148532,52.2746705 612.597962,53.4984097 610.956,55.624 C609.156,57.824 608.256,61.0306667 608.256,65.244 C608.256,69.4573333 609.156,72.664 610.956,74.864 C612.597962,76.9895903 615.148532,78.2133295 617.834,78.164 C619.942409,78.2436525 622.012708,77.5863194 623.689,76.305 C625.287574,74.9833196 626.372728,73.1434748 626.756,71.105 L643.579,71.105 C642.401667,77.549 639.551333,82.6156667 635.028,86.305 C630.504667,89.9943333 624.897,91.8376667 618.205,91.835 C613.49885,91.9250288 608.846553,90.8217295 604.682,88.628 C600.766259,86.5093648 597.552635,83.2957406 595.434,79.38 C593.126142,75.0356712 591.97393,70.1709658 592.088,65.253 C591.963277,60.3244291 593.099159,55.4456433 595.388,51.079 C597.499951,47.1704267 600.71649,43.9705833 604.636,41.879 C608.816492,39.6814903 613.482794,38.5713995 618.205,38.651 L618.21,38.653 Z M671.559,38.653 C675.155297,38.5548583 678.704073,39.4920349 681.783,41.353 C684.589381,43.0986783 686.794691,45.6609552 688.103,48.696 L688.103,39.309 L703.903,39.309 L703.903,91.166 L688.103,91.166 L688.103,81.779 C686.794691,84.8140448 684.589381,87.3763217 681.783,89.122 C678.704073,90.9829651 675.155297,91.9201417 671.559,91.822 C667.503244,91.8840405 663.516312,90.7701725 660.08,88.615 C656.593324,86.3518383 653.821379,83.1446631 652.087,79.367 C650.05007,74.9417136 649.048704,70.1103262 649.159,65.24 C649.038893,60.3536484 650.040547,55.5047937 652.087,51.066 C653.831399,47.3075564 656.602144,44.1184084 660.08,41.866 C663.514017,39.7089471 667.499138,38.5923214 671.554,38.651 L671.559,38.653 Z M676.671,52.595 C673.573908,52.4668914 670.573315,53.6874097 668.445,55.941 C666.369,58.1716667 665.331,61.2696667 665.331,65.235 C665.331,69.2003333 666.369,72.2983333 668.445,74.529 C670.573315,76.7825903 673.573908,78.0031086 676.671,77.875 C679.781303,77.9737754 682.78167,76.7192754 684.896,74.436 C687.121644,71.9036073 688.27213,68.6031795 688.103,65.236 C688.103,61.3326667 687.034,58.25 684.896,55.988 C682.766934,53.7279018 679.769305,52.4916988 676.666,52.594 L676.671,52.595 Z M747.771,38.746 C753.719667,38.746 758.444333,40.7286667 761.945,44.694 C765.445667,48.6593333 767.195,54.1116667 767.193002,61.051 L767.193002,91.166 L751.3,91.166 L751.3,62.911 C751.3,59.4443333 750.386,56.7333333 748.558,54.778 C746.660285,52.7956608 743.999573,51.7284601 741.258,51.85 C738.377982,51.7108097 735.579631,52.8300769 733.59,54.917 C731.702667,56.9623333 730.759,59.8736667 730.759,63.651 L730.759,91.166 L714.866,91.166 L714.866,39.304 L730.759,39.304 L730.759,48.784 C732.201894,45.7346051 734.514136,43.1798661 737.405,41.441 C740.54004,39.5929285 744.129822,38.6593705 747.768,38.746 L747.771,38.746 Z" fill="#FFFFFF" fill-rule="nonzero"></path>
        </g>
    </g>
</svg>